# xmcd
#
# Track frame offsets:
#	150
#	13186
#	23997
#	33757
#	42922
#	53619
#	62782
#	72730
#	83752
#	94892
#	103685
#	111322
#	122724
#	132872
#	142041
#	150928
#	160496
#	171624
#	180844
#	192885
#	201439
#	212626
#	221936
#	232645
#	243569
#	253169
#	263940
#	274527
#	284307
#	293648
#	304071
#	317064
#	329446
#
# Disc length: 4569 seconds
#
# Revision: 0
# Processed by: cddbd v1.5.1PL0 Copyright (c) Steve Scherf et al.
# Submitted via: audiograbber 1.82.02
#
DISCID=ef11d721
DTITLE=Deutscher Fox Mix 7 - Deutscher Fox Mix 7
DYEAR=1980
DGENRE=mix
TTITLE0=Roland Kaiser - Summer Wine - Sie sah mich
TTITLE1=Marc Andre - Nur noch 24 Stunden
TTITLE2=Wolfgang Petry - Weiss der Geier
TTITLE3=Francesco Napoli - Nur so ein Gefühl
TTITLE4=Jeannie - Spiel nicht  mit der Liebe
TTITLE5=Andreas Martin - Ich gebe auch
TTITLE6=Roland Kaiser - Sag ihm das ich dich Liebe
TTITLE7=Dennie Christian - Ohne dich steh ich völlig da
TTITLE8=M.Süssenbach - Ich bin doch nicht Blöd
TTITLE9=Iliver Frank - Irgendwo,brennt immer ein Licht
TTITLE10=Chris Marlo - ich hab geglaubt du Liebst mich
TTITLE11=Wolfgang Petry - Augen zu und Durch 
TTITLE12=Cloiff and Rexona - Das Ganz Große Glück
TTITLE13=Oliver Frank - Komm`doch zurück
TTITLE14=Mike Bauhaus - Schlaf doch ganz einfach bei mir
TTITLE15=Oliver Frank - Das Fieber bleibt
TTITLE16=Wolfgang Petry - Bis Irgendwann
TTITLE17=Andreas Martin - Dich gibs nur einmal
TTITLE18=Chris White - Schnuppe
TTITLE19=Frank Lars - Warum hezte Nacht
TTITLE20=Wind - Überall spür ich dich
TTITLE21=Oliver Frank - Du bringst mich um
TTITLE22=Ibo - Das kann ich auch
TTITLE23=Michael Larson - Eine einzige Nacht
TTITLE24=Catlen - Ich will bei dir sein 
TTITLE25=Catlen - Wo gehst du hin
TTITLE26=Danny Dawis - Im Namen der Liebe
TTITLE27=Sandy Wagner - Ich brauch mehr Schlaf
TTITLE28=Jürgen Rennfordt - Du allein kannst Fliegen
TTITLE29=Peter White - Nicht ein Wort davon ist wahr
TTITLE30=Simone - Heute Nacht
TTITLE31=Maria Bonelli - Mit dir kam die Liebe 
TTITLE32=Chris Alexandros
EXTD=
EXTT0=
EXTT1=
EXTT2=
EXTT3=
EXTT4=
EXTT5=
EXTT6=
EXTT7=
EXTT8=
EXTT9=
EXTT10=
EXTT11=
EXTT12=
EXTT13=
EXTT14=
EXTT15=
EXTT16=
EXTT17=
EXTT18=
EXTT19=
EXTT20=
EXTT21=
EXTT22=
EXTT23=
EXTT24=
EXTT25=
EXTT26=
EXTT27=
EXTT28=
EXTT29=
EXTT30=
EXTT31=
EXTT32=
PLAYORDER=
